<?xml version="1.0" standalone="no"?>
<!DOCTYPE svg PUBLIC "-//W3C//DTD SVG 20010904//EN"
 "http://www.w3.org/TR/2001/REC-SVG-20010904/DTD/svg10.dtd">
<svg version="1.0" xmlns="http://www.w3.org/2000/svg"
 width="1300.000000pt" height="1300.000000pt" viewBox="0 0 1300.000000 1300.000000"
 preserveAspectRatio="xMidYMid meet">

<g transform="translate(0.000000,1300.000000) scale(0.100000,-0.100000)"
fill="#000000" stroke="none">
<path d="M5983 9743 c-35 -7 -80 -55 -92 -99 -8 -27 -11 -489 -11 -1560 l0
-1522 28 -18 c60 -39 401 -207 510 -251 9 -4 12 334 12 1668 0 1574 -1 1676
-18 1708 -35 70 -54 76 -240 77 -92 1 -177 0 -189 -3z"/>
<path d="M5285 9186 c-16 -7 -41 -26 -55 -41 l-25 -27 -3 -1033 -2 -1033 57
-52 c100 -89 424 -330 468 -346 14 -6 15 123 13 1229 l-3 1235 -25 27 c-44 48
-76 55 -242 55 -105 -1 -162 -5 -183 -14z"/>
<path d="M4920 8835 c-461 -79 -742 -304 -801 -640 -18 -103 -6 -290 25 -401
40 -147 160 -401 229 -487 l22 -28 77 93 c43 51 96 113 117 138 l40 45 -62
125 c-106 210 -144 362 -134 534 12 211 111 382 292 498 81 53 118 70 235 109
91 30 79 35 -40 14z"/>
<path d="M7023 7544 c-51 -593 -91 -1079 -89 -1082 7 -6 177 89 182 102 2 6 3
471 2 1034 l-3 1023 -92 -1077z"/>
<path d="M4670 7274 c-39 -58 -82 -129 -96 -156 l-25 -50 48 -56 c191 -227
541 -525 865 -735 137 -90 340 -207 358 -207 42 0 417 96 506 130 27 11 26 12
-67 54 -574 258 -1088 630 -1422 1026 -44 52 -83 96 -87 98 -5 2 -40 -45 -80
-104z"/>
<path d="M8620 7064 c0 -3 11 -49 25 -103 52 -206 51 -354 -2 -521 -111 -350
-501 -538 -1073 -516 -91 3 -209 12 -263 20 l-98 14 -182 -88 c-100 -48 -224
-104 -275 -125 -51 -21 -91 -40 -89 -42 19 -18 406 -114 572 -142 177 -29 199
-31 362 -40 665 -37 1126 168 1258 560 34 102 45 266 25 387 -25 156 -93 334
-195 507 -50 86 -65 106 -65 89z"/>
<path d="M3368 4616 c-108 -29 -168 -102 -168 -204 0 -90 38 -154 115 -195 37
-20 58 -22 307 -27 250 -5 268 -6 295 -26 45 -33 58 -69 41 -111 -7 -20 -26
-45 -41 -57 -27 -20 -41 -21 -368 -24 l-339 -3 0 -70 0 -70 343 3 c336 3 343
3 395 27 216 98 177 410 -58 460 -28 6 -150 11 -271 11 l-220 0 -24 25 c-40
39 -32 96 16 120 23 12 86 15 339 15 l310 0 0 70 0 70 -312 -1 c-219 0 -327
-4 -360 -13z"/>
<path d="M4167 4623 c-4 -3 -7 -35 -7 -70 l0 -63 160 0 160 0 0 -330 0 -330
70 0 70 0 0 330 0 330 155 0 155 0 0 70 0 70 -378 0 c-208 0 -382 -3 -385 -7z"/>
<path d="M5215 4612 c-16 -11 -37 -28 -46 -38 -23 -27 -439 -724 -439 -735 0
-5 37 -9 83 -9 l84 0 159 262 c87 144 168 277 180 296 l21 35 67 -111 c36 -60
66 -113 66 -116 0 -3 -47 -6 -104 -6 l-103 0 -37 -59 c-20 -32 -36 -62 -36
-65 0 -3 82 -6 183 -6 l182 0 69 -115 68 -115 90 0 90 0 -14 23 c-8 12 -105
177 -216 367 -111 190 -214 358 -230 373 -38 36 -79 43 -117 19z"/>
<path d="M5580 4560 l0 -70 160 0 160 0 0 -330 0 -330 65 0 65 0 0 330 0 330
160 0 161 0 -3 68 -3 67 -382 3 -383 2 0 -70z"/>
<path d="M6467 4623 c-4 -3 -7 -183 -7 -400 l0 -393 70 0 70 0 0 400 0 400
-63 0 c-35 0 -67 -3 -70 -7z"/>
<path d="M6901 4611 c-92 -32 -136 -80 -152 -165 -17 -93 28 -182 115 -229 38
-21 58 -22 301 -27 223 -4 265 -7 292 -23 38 -21 53 -45 53 -87 0 -46 -16 -69
-63 -91 -38 -17 -70 -19 -364 -19 l-323 0 0 -70 0 -70 315 0 c188 0 334 4 365
11 68 14 139 64 168 116 70 127 16 286 -117 347 -42 18 -70 21 -297 26 -229 5
-254 7 -273 24 -21 19 -27 58 -15 91 16 41 48 45 374 45 l310 0 0 70 0 70
-317 0 c-283 -1 -324 -3 -372 -19z"/>
<path d="M7710 4560 l0 -70 160 0 160 0 0 -330 0 -330 65 0 65 0 0 330 0 330
160 0 161 0 -3 68 -3 67 -382 3 -383 2 0 -70z"/>
<path d="M8597 4623 c-4 -3 -7 -183 -7 -400 l0 -393 70 0 70 0 0 400 0 400
-63 0 c-35 0 -67 -3 -70 -7z"/>
<path d="M9230 4623 c-213 -36 -344 -202 -327 -417 8 -112 39 -180 116 -257
107 -107 127 -112 459 -117 l272 -4 0 70 0 71 -267 3 -268 3 -46 27 c-94 56
-135 134 -127 247 6 81 38 145 93 187 63 48 107 54 372 54 l243 0 0 70 0 70
-247 -1 c-137 -1 -259 -4 -273 -6z"/>
</g>
</svg>
